<svg width="40" height="41" viewBox="0 0 40 41" fill="none" xmlns="http://www.w3.org/2000/svg">
<g clip-path="url(#clip0_417_97)">
<path fill-rule="evenodd" clip-rule="evenodd" d="M0 40.5H40V0.5H0V40.5Z" fill="#0069B4"/>
<path fill-rule="evenodd" clip-rule="evenodd" d="M6.92212 29.2458C7.21169 29.2458 7.59717 29.3552 7.82758 29.6564L7.87367 29.7197L8.59075 29.18L8.54062 29.1122C8.11965 28.5741 7.49504 28.2643 6.83649 28.2643C5.64581 28.2643 4.67963 29.264 4.67963 30.4878C4.67963 31.7173 5.64581 32.7128 6.83649 32.7128C7.49286 32.7128 8.12868 32.3938 8.53128 31.8608L8.57985 31.7972L7.869 31.2511L7.82042 31.3274C7.64076 31.6232 7.22197 31.7272 6.92212 31.7272C6.32771 31.7272 5.86066 31.1868 5.86066 30.4878C5.86066 29.7925 6.32771 29.2458 6.92212 29.2458Z" fill="white"/>
<path fill-rule="evenodd" clip-rule="evenodd" d="M11.7813 31.7268C11.1906 31.7268 10.7102 31.1728 10.7102 30.4877C10.7102 29.8004 11.1906 29.2458 11.7813 29.2458C12.3742 29.2458 12.8599 29.8004 12.8599 30.4877C12.8599 31.1728 12.3742 31.7268 11.7813 31.7268ZM11.7813 28.2643C10.5386 28.2643 9.52948 29.2639 9.52948 30.4877C9.52948 31.7176 10.5386 32.7131 11.7813 32.7131C13.0221 32.7131 14.0328 31.7176 14.0328 30.4877C14.0328 29.2639 13.0221 28.2643 11.7813 28.2643Z" fill="white"/>
<path fill-rule="evenodd" clip-rule="evenodd" d="M21.4722 31.7268C20.8802 31.7268 20.3985 31.1728 20.3985 30.4877C20.3985 29.8004 20.8802 29.2458 21.4722 29.2458C22.0659 29.2458 22.5479 29.8004 22.5479 30.4877C22.5479 31.1728 22.0659 31.7268 21.4722 31.7268ZM21.4722 28.2643C20.2279 28.2643 19.2181 29.2639 19.2181 30.4877C19.2181 31.7176 20.2279 32.7131 21.4722 32.7131C22.7111 32.7131 23.7206 31.7176 23.7206 30.4877C23.7206 29.2639 22.7111 28.2643 21.4722 28.2643Z" fill="white"/>
<path fill-rule="evenodd" clip-rule="evenodd" d="M27.0538 28.3256C27.0348 28.3319 27.118 28.3109 27.118 28.3109C27.2674 28.2769 27.3789 28.2702 27.4985 28.2648C27.5648 28.2613 27.6333 28.2648 27.69 28.2715C28.7075 28.3453 29.4097 29.1604 29.4097 30.3076V32.6252H28.2781V30.3289C28.2781 29.5996 27.8298 29.272 27.382 29.272C26.9162 29.272 26.3996 29.6496 26.3996 30.1591V32.6252H25.2687V28.3497L25.4185 28.4563C25.5985 28.5593 25.8124 28.6236 26.036 28.6236C26.2175 28.6236 26.4249 28.5774 26.5849 28.504C26.5849 28.504 26.9277 28.3621 27.0538 28.3256Z" fill="white"/>
<path fill-rule="evenodd" clip-rule="evenodd" d="M33.006 31.7268C32.4704 31.7268 32.0326 31.1728 32.0326 30.4877C32.0326 29.8004 32.4704 29.2458 33.006 29.2458C33.5502 29.2458 33.9902 29.8004 33.9902 30.4877C33.9902 31.1728 33.5502 31.7268 33.006 31.7268ZM33.8498 32.445C34.0011 32.3823 34.1671 32.3425 34.3436 32.3425C34.6391 32.3425 34.9125 32.4488 35.1261 32.6297L35.1277 28.3498L34.9841 28.4567C34.7988 28.5591 34.5862 28.6237 34.3629 28.6237C34.177 28.6237 33.9681 28.5776 33.8143 28.5038C33.8143 28.5038 33.7825 28.4882 33.7383 28.4697C33.7062 28.4599 33.5235 28.3762 33.4671 28.3533C33.4568 28.3533 33.3802 28.3314 33.3535 28.3238C33.3535 28.3238 33.1361 28.2754 33.0203 28.2703C32.9829 28.2681 32.9512 28.2643 32.9157 28.2643H32.8995H32.9085H32.8945C31.7642 28.2643 30.8497 29.2639 30.8497 30.4877C30.8684 31.7332 31.7642 32.7131 32.8945 32.7131C33.1785 32.7131 33.4484 32.6495 33.6988 32.527L33.8498 32.445Z" fill="white"/>
<path fill-rule="evenodd" clip-rule="evenodd" d="M16.6557 30.159C16.6557 29.8088 16.9063 29.5086 17.2395 29.4466C17.2768 29.4405 17.7648 29.3569 18.0599 29.7407V28.2971C18.0599 28.2971 17.8825 28.2644 17.7022 28.2644C17.4322 28.2612 17.1573 28.3318 16.9063 28.4562L16.8045 28.509C16.6494 28.5834 16.4747 28.6238 16.2923 28.6238C16.064 28.6238 15.8539 28.5595 15.6727 28.4517L15.526 28.3499V32.6248H16.6557V30.159Z" fill="white"/>
</g>
<defs>
<clipPath id="clip0_417_97">
<rect width="40" height="40" fill="white" transform="translate(0 0.5)"/>
</clipPath>
</defs>
</svg>
